<?xml version="1.0" encoding="UTF-8"?>
<svg xmlns="http://www.w3.org/2000/svg" xmlns:xlink="http://www.w3.org/1999/xlink" viewBox="0 0 300 300" width="300px" height="300px">
<g id="surface660204">
<path style=" stroke:none;fill-rule:nonzero;fill:rgb(10.196079%,73.725492%,61.176473%);fill-opacity:1;" d="M 153 183.226562 L 93.59375 242.632812 L 9.925781 158.960938 C 5.023438 154.0625 5.023438 146.125 9.925781 141.226562 L 51.59375 99.554688 C 56.492188 94.65625 64.429688 94.65625 69.332031 99.554688 Z M 153 183.226562 "/>
<path style=" stroke:none;fill-rule:nonzero;fill:rgb(20.392157%,59.607846%,85.882354%);fill-opacity:1;" d="M 111.230469 260.261719 L 69.5625 218.59375 C 64.664062 213.695312 64.664062 205.757812 69.5625 200.855469 L 230.667969 39.738281 C 235.570312 34.835938 243.507812 34.835938 248.40625 39.738281 L 290.074219 81.40625 C 294.976562 86.304688 294.976562 94.242188 290.074219 99.144531 L 128.960938 260.261719 C 124.070312 265.15625 116.125 265.15625 111.230469 260.261719 Z M 111.230469 260.261719 "/>
</g>
</svg>
